<svg width="100" height="100" viewBox="0 0 100 100" fill="none" xmlns="http://www.w3.org/2000/svg">
<path d="M85.15 49.6962C85.5508 49.8009 85.9481 49.9022 86.3412 50C85.9481 50.0978 85.5508 50.1991 85.15 50.3038C77.3207 52.3494 67.6178 55.8558 61.7368 61.7368C55.8558 67.6178 52.3494 77.3207 50.3038 85.15C50.1991 85.5508 50.0978 85.9481 50 86.3412C49.9022 85.9481 49.8009 85.5508 49.6962 85.15C47.6506 77.3207 44.1442 67.6178 38.2632 61.7368C32.3822 55.8558 22.6793 52.3494 14.85 50.3038C14.4492 50.1991 14.0519 50.0978 13.6588 50C14.0519 49.9022 14.4492 49.8009 14.85 49.6962C22.6793 47.6506 32.3822 44.1442 38.2632 38.2632C44.1442 32.3822 47.6506 22.6793 49.6962 14.85C49.8009 14.4492 49.9022 14.0519 50 13.6588C50.0978 14.0519 50.1991 14.4492 50.3038 14.85C52.3494 22.6793 55.8558 32.3822 61.7368 38.2632C67.6178 44.1442 77.3207 47.6506 85.15 49.6962Z" stroke="white" stroke-width="5"/>
</svg>
